<svg width="40" height="40" viewBox="0 0 40 40" fill="none" xmlns="http://www.w3.org/2000/svg">
<circle cx="20" cy="20" r="20" fill="#212122"/>
<path d="M11.855 24.168C10.8003 24.168 9.97434 23.846 9.37701 23.202L10.007 22.222C10.2217 22.4553 10.4923 22.656 10.819 22.824C11.155 22.9827 11.491 23.062 11.827 23.062C12.1723 23.062 12.443 22.9827 12.639 22.824C12.8443 22.6653 12.947 22.4507 12.947 22.18C12.947 21.9467 12.8303 21.7507 12.597 21.592C12.373 21.4333 12.0977 21.298 11.771 21.186C11.4443 21.074 11.113 20.948 10.777 20.808C10.4503 20.6587 10.1703 20.4347 9.93701 20.136C9.71301 19.828 9.60101 19.45 9.60101 19.002C9.60101 18.4513 9.80634 17.994 10.217 17.63C10.637 17.2567 11.2063 17.07 11.925 17.07C12.8117 17.07 13.5537 17.3593 14.151 17.938L13.563 18.89C13.171 18.414 12.6343 18.176 11.953 18.176C11.645 18.176 11.393 18.2507 11.197 18.4C11.0103 18.5493 10.917 18.736 10.917 18.96C10.917 19.1467 11.001 19.31 11.169 19.45C11.337 19.5807 11.5423 19.6833 11.785 19.758C12.037 19.8327 12.3077 19.9353 12.597 20.066C12.8863 20.1873 13.1523 20.3227 13.395 20.472C13.647 20.6213 13.857 20.8407 14.025 21.13C14.193 21.4193 14.277 21.76 14.277 22.152C14.277 22.74 14.053 23.2253 13.605 23.608C13.1663 23.9813 12.583 24.168 11.855 24.168ZM20.4141 24H19.0281V23.314C18.6175 23.8833 18.0248 24.168 17.2501 24.168C16.6715 24.168 16.1815 23.9673 15.7801 23.566C15.3788 23.1553 15.1781 22.6047 15.1781 21.914C15.1781 21.2233 15.3788 20.6867 15.7801 20.304C16.1815 19.912 16.6715 19.716 17.2501 19.716C18.0435 19.716 18.6361 19.9867 19.0281 20.528V19.548C19.0281 19.1373 18.9115 18.82 18.6781 18.596C18.4541 18.372 18.1321 18.26 17.7121 18.26C17.0961 18.26 16.5361 18.5167 16.0321 19.03L15.4861 18.05C16.1395 17.3967 16.9655 17.07 17.9641 17.07C18.7108 17.07 19.3035 17.2613 19.7421 17.644C20.1901 18.0173 20.4141 18.596 20.4141 19.38V24ZM17.7541 23.202C18.3141 23.202 18.7388 22.9547 19.0281 22.46V21.438C18.8975 21.2047 18.7155 21.0227 18.4821 20.892C18.2488 20.752 18.0061 20.682 17.7541 20.682C17.3995 20.682 17.1148 20.7987 16.9001 21.032C16.6855 21.2653 16.5781 21.5687 16.5781 21.942C16.5781 22.3153 16.6855 22.6187 16.9001 22.852C17.1148 23.0853 17.3995 23.202 17.7541 23.202ZM23.4633 24H22.0633V14.662H23.4633V24ZM27.8141 24.168C26.8901 24.168 26.1528 23.8413 25.6021 23.188C25.0515 22.5347 24.7761 21.676 24.7761 20.612C24.7761 19.604 25.0375 18.764 25.5601 18.092C26.0921 17.4107 26.7968 17.07 27.6741 17.07C28.5608 17.07 29.2515 17.406 29.7461 18.078C30.2408 18.75 30.4881 19.6133 30.4881 20.668V21.074H26.1901C26.2181 21.6527 26.3861 22.124 26.6941 22.488C27.0021 22.8427 27.4221 23.02 27.9541 23.02C28.5608 23.02 29.0695 22.7773 29.4801 22.292L30.1521 23.132C29.5455 23.8227 28.7661 24.168 27.8141 24.168ZM29.1301 20.08C29.1208 19.5853 28.9948 19.1513 28.7521 18.778C28.5188 18.3953 28.1548 18.204 27.6601 18.204C27.1841 18.204 26.8248 18.3953 26.5821 18.778C26.3395 19.1607 26.2041 19.5947 26.1761 20.08H29.1301Z" fill="white"/>
</svg>
