<svg width="30" height="30" viewBox="0 0 30 30" fill="none" xmlns="http://www.w3.org/2000/svg">
<circle cx="15" cy="15" r="15" fill="#212122"/>
<path d="M7.51858 19.144C6.61458 19.144 5.90658 18.868 5.39458 18.316L5.93458 17.476C6.11858 17.676 6.35058 17.848 6.63058 17.992C6.91858 18.128 7.20658 18.196 7.49458 18.196C7.79058 18.196 8.02258 18.128 8.19058 17.992C8.36658 17.856 8.45458 17.672 8.45458 17.44C8.45458 17.24 8.35458 17.072 8.15458 16.936C7.96258 16.8 7.72658 16.684 7.44658 16.588C7.16658 16.492 6.88258 16.384 6.59458 16.264C6.31458 16.136 6.07458 15.944 5.87458 15.688C5.68258 15.424 5.58658 15.1 5.58658 14.716C5.58658 14.244 5.76258 13.852 6.11458 13.54C6.47458 13.22 6.96258 13.06 7.57858 13.06C8.33858 13.06 8.97458 13.308 9.48658 13.804L8.98258 14.62C8.64658 14.212 8.18658 14.008 7.60258 14.008C7.33858 14.008 7.12258 14.072 6.95458 14.2C6.79458 14.328 6.71458 14.488 6.71458 14.68C6.71458 14.84 6.78658 14.98 6.93058 15.1C7.07458 15.212 7.25058 15.3 7.45858 15.364C7.67458 15.428 7.90658 15.516 8.15458 15.628C8.40258 15.732 8.63058 15.848 8.83858 15.976C9.05458 16.104 9.23458 16.292 9.37858 16.54C9.52258 16.788 9.59458 17.08 9.59458 17.416C9.59458 17.92 9.40258 18.336 9.01858 18.664C8.64258 18.984 8.14258 19.144 7.51858 19.144ZM14.855 19H13.667V18.412C13.315 18.9 12.807 19.144 12.143 19.144C11.647 19.144 11.227 18.972 10.883 18.628C10.539 18.276 10.367 17.804 10.367 17.212C10.367 16.62 10.539 16.16 10.883 15.832C11.227 15.496 11.647 15.328 12.143 15.328C12.823 15.328 13.331 15.56 13.667 16.024V15.184C13.667 14.832 13.567 14.56 13.367 14.368C13.175 14.176 12.899 14.08 12.539 14.08C12.011 14.08 11.531 14.3 11.099 14.74L10.631 13.9C11.191 13.34 11.899 13.06 12.755 13.06C13.395 13.06 13.903 13.224 14.279 13.552C14.663 13.872 14.855 14.368 14.855 15.04V19ZM12.575 18.316C13.055 18.316 13.419 18.104 13.667 17.68V16.804C13.555 16.604 13.399 16.448 13.199 16.336C12.999 16.216 12.791 16.156 12.575 16.156C12.271 16.156 12.027 16.256 11.843 16.456C11.659 16.656 11.567 16.916 11.567 17.236C11.567 17.556 11.659 17.816 11.843 18.016C12.027 18.216 12.271 18.316 12.575 18.316ZM17.4685 19H16.2685V10.996H17.4685V19ZM21.1978 19.144C20.4058 19.144 19.7738 18.864 19.3018 18.304C18.8298 17.744 18.5938 17.008 18.5938 16.096C18.5938 15.232 18.8178 14.512 19.2658 13.936C19.7218 13.352 20.3258 13.06 21.0778 13.06C21.8378 13.06 22.4298 13.348 22.8538 13.924C23.2778 14.5 23.4898 15.24 23.4898 16.144V16.492H19.8058C19.8298 16.988 19.9738 17.392 20.2378 17.704C20.5018 18.008 20.8618 18.16 21.3178 18.16C21.8378 18.16 22.2738 17.952 22.6258 17.536L23.2018 18.256C22.6818 18.848 22.0138 19.144 21.1978 19.144ZM22.3258 15.64C22.3178 15.216 22.2098 14.844 22.0018 14.524C21.8018 14.196 21.4898 14.032 21.0658 14.032C20.6578 14.032 20.3498 14.196 20.1418 14.524C19.9338 14.852 19.8178 15.224 19.7938 15.64H22.3258Z" fill="white"/>
</svg>
